<?xml version="1.0" encoding="UTF-8" standalone="no"?>
<!-- Created with Inkscape (http://www.inkscape.org/) -->

<svg
   xmlns:dc="http://purl.org/dc/elements/1.1/"
   xmlns:cc="http://creativecommons.org/ns#"
   xmlns:rdf="http://www.w3.org/1999/02/22-rdf-syntax-ns#"
   xmlns:svg="http://www.w3.org/2000/svg"
   xmlns="http://www.w3.org/2000/svg"
   xmlns:sodipodi="http://sodipodi.sourceforge.net/DTD/sodipodi-0.dtd"
   xmlns:inkscape="http://www.inkscape.org/namespaces/inkscape"
   width="744.09448819"
   height="1052.3622047"
   id="svg2"
   version="1.1"
   inkscape:version="0.48.3.1 r9886"
   sodipodi:docname="criacao.svg">
  <defs
     id="defs4">
    <inkscape:path-effect
       effect="spiro"
       id="path-effect2987"
       is_visible="true" />
    <inkscape:path-effect
       effect="spiro"
       id="path-effect2987-6"
       is_visible="true" />
  </defs>
  <sodipodi:namedview
     id="base"
     pagecolor="#ffffff"
     bordercolor="#666666"
     borderopacity="1.0"
     inkscape:pageopacity="0.0"
     inkscape:pageshadow="2"
     inkscape:zoom="0.7"
     inkscape:cx="701.97533"
     inkscape:cy="371.11652"
     inkscape:document-units="px"
     inkscape:current-layer="layer1"
     showgrid="false"
     inkscape:window-width="1920"
     inkscape:window-height="1056"
     inkscape:window-x="0"
     inkscape:window-y="24"
     inkscape:window-maximized="1" />
  <metadata
     id="metadata7">
    <rdf:RDF>
      <cc:Work
         rdf:about="">
        <dc:format>image/svg+xml</dc:format>
        <dc:type
           rdf:resource="http://purl.org/dc/dcmitype/StillImage" />
        <dc:title></dc:title>
      </cc:Work>
    </rdf:RDF>
  </metadata>
  <g
     inkscape:label="Layer 1"
     inkscape:groupmode="layer"
     id="layer1">
    <path
       style="fill:none;stroke:none"
       d="m 349.6246,-126.12262 0,-258.59903 266.1752,0 266.1752,0 0,258.59903 0,258.59907 -266.1752,0 -266.1752,0 0,-258.59907 z"
       id="path3946-7"
       inkscape:connector-curvature="0" />
    <g
       id="g3151"
       inkscape:export-xdpi="90"
       inkscape:export-ydpi="90">
      <rect
         y="-85.04966"
         x="-677.0636"
         height="266.67068"
         width="267.7421"
         id="rect3759-5-8-51-5-8-8"
         style="fill:none;stroke:#000000;stroke-width:4;stroke-linecap:square;stroke-linejoin:miter;stroke-miterlimit:4;stroke-opacity:1;stroke-dasharray:none;stroke-dashoffset:0" />
      <path
         inkscape:connector-curvature="0"
         id="path3918-0"
         d="m -674.39186,48.559374 0,-130.714285 131.42851,0 131.42861,0 0,130.714285 0,130.714316 -131.42861,0 -131.42851,0 0,-130.714316 z"
         style="fill:#6464c6;fill-opacity:1;stroke:none" />
      <rect
         y="-85.105392"
         x="-945.86218"
         height="266.67068"
         width="267.7421"
         id="rect3759-5-8-51-5-8-20"
         style="fill:none;stroke:#000000;stroke-width:4;stroke-linecap:square;stroke-linejoin:miter;stroke-miterlimit:4;stroke-opacity:1;stroke-dasharray:none;stroke-dashoffset:0" />
      <path
         inkscape:connector-curvature="0"
         id="path3918-63"
         d="m -943.19059,48.566779 0,-130.714287 131.42855,0 131.42861,0 0,130.714287 0,130.714291 -131.42861,0 -131.42855,0 0,-130.714291 z"
         style="fill:#6464c6;fill-opacity:1;stroke:none" />
      <rect
         y="46.88752"
         x="-1215.572"
         height="134.3503"
         width="134.3503"
         id="rect3759-9-54-6"
         style="fill:none;stroke:#000000;stroke-width:4;stroke-linecap:square;stroke-linejoin:miter;stroke-miterlimit:4;stroke-opacity:1;stroke-dasharray:none;stroke-dashoffset:0" />
      <rect
         y="46.907845"
         x="-1081.1586"
         height="134.3503"
         width="134.3503"
         id="rect3759-5-8-51-5"
         style="fill:none;stroke:#000000;stroke-width:4;stroke-linecap:square;stroke-linejoin:miter;stroke-miterlimit:4;stroke-opacity:1;stroke-dasharray:none;stroke-dashoffset:0" />
      <rect
         y="181.37842"
         x="-946.9516"
         height="134.3503"
         width="134.3503"
         id="rect3759"
         style="fill:none;stroke:#000000;stroke-width:4;stroke-linecap:square;stroke-linejoin:miter;stroke-miterlimit:4;stroke-opacity:1;stroke-dasharray:none;stroke-dashoffset:0" />
      <rect
         y="181.34525"
         x="-678.02551"
         height="134.3503"
         width="134.3503"
         id="rect3759-9"
         style="fill:none;stroke:#000000;stroke-width:4;stroke-linecap:square;stroke-linejoin:miter;stroke-miterlimit:4;stroke-opacity:1;stroke-dasharray:none;stroke-dashoffset:0" />
      <rect
         y="181.39874"
         x="-812.53821"
         height="134.3503"
         width="134.3503"
         id="rect3759-5"
         style="fill:none;stroke:#000000;stroke-width:4;stroke-linecap:square;stroke-linejoin:miter;stroke-miterlimit:4;stroke-opacity:1;stroke-dasharray:none;stroke-dashoffset:0" />
      <rect
         y="47.408134"
         x="-409.1434"
         height="134.3503"
         width="134.3503"
         id="rect3759-9-54"
         style="fill:none;stroke:#000000;stroke-width:4;stroke-linecap:square;stroke-linejoin:miter;stroke-miterlimit:4;stroke-opacity:1;stroke-dasharray:none;stroke-dashoffset:0" />
      <rect
         y="181.41577"
         x="-409.47601"
         height="134.3503"
         width="134.3503"
         id="rect3759-9-5"
         style="fill:none;stroke:#000000;stroke-width:4;stroke-linecap:square;stroke-linejoin:miter;stroke-miterlimit:4;stroke-opacity:1;stroke-dasharray:none;stroke-dashoffset:0" />
      <rect
         y="47.428459"
         x="-274.72995"
         height="134.3503"
         width="134.3503"
         id="rect3759-5-8-51"
         style="fill:none;stroke:#000000;stroke-width:4;stroke-linecap:square;stroke-linejoin:miter;stroke-miterlimit:4;stroke-opacity:1;stroke-dasharray:none;stroke-dashoffset:0" />
      <rect
         y="181.36557"
         x="-543.61212"
         height="134.3503"
         width="134.3503"
         id="rect3759-5-8"
         style="fill:none;stroke:#000000;stroke-width:4;stroke-linecap:square;stroke-linejoin:miter;stroke-miterlimit:4;stroke-opacity:1;stroke-dasharray:none;stroke-dashoffset:0" />
      <rect
         y="181.4361"
         x="-275.06259"
         height="134.3503"
         width="134.3503"
         id="rect3759-5-8-5"
         style="fill:none;stroke:#000000;stroke-width:4;stroke-linecap:square;stroke-linejoin:miter;stroke-miterlimit:4;stroke-opacity:1;stroke-dasharray:none;stroke-dashoffset:0" />
      <rect
         y="181.74615"
         x="-1215.5747"
         height="266.67068"
         width="267.7421"
         id="rect3759-5-8-51-5-8"
         style="fill:none;stroke:#000000;stroke-width:4;stroke-linecap:square;stroke-linejoin:miter;stroke-miterlimit:4;stroke-opacity:1;stroke-dasharray:none;stroke-dashoffset:0" />
      <path
         inkscape:connector-curvature="0"
         inkscape:original-d="m -1241.839,181.18859 1144.12944,0"
         inkscape:path-effect="#path-effect2987"
         id="path2985"
         d="m -1241.839,181.18859 1144.12944,0"
         style="fill:none;stroke:#ff0000;stroke-width:6;stroke-linecap:butt;stroke-linejoin:miter;stroke-miterlimit:4;stroke-opacity:1;stroke-dasharray:none" />
      <path
         inkscape:connector-curvature="0"
         id="path3918"
         d="m -1212.9029,315.41832 0,-130.71428 131.4285,0 131.42861,0 0,130.71428 0,130.71429 -131.42861,0 -131.4285,0 0,-130.71429 z"
         style="fill:#6464c6;fill-opacity:1;stroke:none" />
      <path
         inkscape:connector-curvature="0"
         id="path3920"
         d="m -944.33151,248.98975 0,-64.28571 64.28572,0 64.28571,0 0,64.28571 0,64.28572 -64.28571,0 -64.28572,0 0,-64.28572 z"
         style="fill:#6464c6;fill-opacity:1;stroke:none" />
      <path
         inkscape:connector-curvature="0"
         id="path3922"
         d="m -810.04579,248.98975 0,-64.28571 64.28571,0 64.28571,0 0,64.28571 0,64.28572 -64.28571,0 -64.28571,0 0,-64.28572 z"
         style="fill:#6464c6;fill-opacity:1;stroke:none" />
      <path
         inkscape:connector-curvature="0"
         id="path3924"
         d="m -675.76008,248.98975 0,-64.28571 65,0 65,0 0,64.28571 0,64.28572 -65,0 -65,0 0,-64.28572 z"
         style="fill:#6464c6;fill-opacity:1;stroke:none" />
      <path
         inkscape:connector-curvature="0"
         id="path3926"
         d="m -541.47437,248.98975 0,-64.28571 65,0 65,0 0,64.28571 0,64.28572 -65,0 -65,0 0,-64.28572 z"
         style="fill:#6464c6;fill-opacity:1;stroke:none" />
      <path
         inkscape:connector-curvature="0"
         id="path3928"
         d="m -407.18865,248.98975 0,-64.28571 65,0 65,0 0,64.28571 0,64.28572 -65,0 -65,0 0,-64.28572 z"
         style="fill:#6464c6;fill-opacity:1;stroke:none" />
      <path
         inkscape:connector-curvature="0"
         id="path3930"
         d="m -272.90293,248.98975 0,-64.28571 65,0 64.99999,0 0,64.28571 0,64.28572 -64.99999,0 -65,0 0,-64.28572 z"
         style="fill:#6464c6;fill-opacity:1;stroke:none" />
      <path
         inkscape:connector-curvature="0"
         id="path3932"
         d="m -944.87656,248.91696 0,-64.73215 65.08928,0 65.08929,0 0,64.73215 0,64.73214 -65.08929,0 -65.08928,0 0,-64.73214 z m 129.10714,0.0893 0,-64.28571 -64.28571,0 -64.28572,0 0,64.28571 0,64.28572 64.28572,0 64.28571,0 0,-64.28572 z"
         style="fill:#6464c6;fill-opacity:1;stroke:none" />
      <path
         inkscape:connector-curvature="0"
         id="path3934"
         d="m -810.05513,249.00624 0,-64.28571 64.28571,0 64.28571,0 0,64.28571 0,64.28572 -64.28571,0 -64.28571,0 0,-64.28572 z"
         style="fill:#6464c6;fill-opacity:1;stroke:none" />
      <path
         inkscape:connector-curvature="0"
         id="path3936"
         d="m -810.05513,249.00624 0,-64.28571 64.28571,0 64.28571,0 0,64.28571 0,64.28572 -64.28571,0 -64.28571,0 0,-64.28572 z"
         style="fill:#6464c6;fill-opacity:1;stroke:none" />
      <path
         inkscape:connector-curvature="0"
         id="path3938"
         d="m -810.41228,248.91696 0,-64.73215 65.08929,0 65.08928,0 0,64.73215 0,64.73214 -65.08928,0 -65.08929,0 0,-64.73214 z m 128.92857,0.0893 0,-64.28571 -64.28571,0 -64.28571,0 0,64.28571 0,64.28572 64.28571,0 64.28571,0 0,-64.28572 z"
         style="fill:#6464c6;fill-opacity:1;stroke:none" />
      <path
         inkscape:connector-curvature="0"
         id="path3942"
         d="m -1213.1246,113.57513 0,-64.649772 64.6498,0 64.6497,0 0,64.649772 0,64.64976 -64.6497,0 -64.6498,0 0,-64.64976 z"
         style="fill:#3d3dec;fill-opacity:1;stroke:none" />
      <path
         inkscape:connector-curvature="0"
         id="path3944"
         d="m -1078.7743,113.57513 0,-64.649772 64.6498,0 64.64972,0 0,64.649772 0,64.64976 -64.64972,0 -64.6498,0 0,-64.64976 z"
         style="fill:#3d3dec;fill-opacity:1;stroke:none" />
      <path
         inkscape:connector-curvature="0"
         id="path3948"
         d="m -406.68487,114.28992 0,-64.649772 64.64977,0 64.64976,0 0,64.649772 0,64.64976 -64.64976,0 -64.64977,0 0,-64.64976 z"
         style="fill:#3d3dec;fill-opacity:1;stroke:none" />
      <path
         inkscape:connector-curvature="0"
         id="path3950"
         d="m -271.32443,114.28992 0,-64.649772 63.63962,0 63.6396,0 0,64.649772 0,64.64976 -63.6396,0 -63.63962,0 0,-64.64976 z"
         style="fill:#3d3dec;fill-opacity:1;stroke:none" />
      <path
         inkscape:connector-curvature="0"
         id="path3952"
         d="m -272.57377,114.21732 0,-64.776032 0.63135,0 0.63134,0 0,64.776032 0,64.77604 -0.63134,0 -0.63135,0 0,-64.77604 z"
         style="fill:#3d3dec;fill-opacity:1;stroke:none" />
      <path
         inkscape:connector-curvature="0"
         id="path3958"
         d="m -277.37199,114.21732 c 0,-43.015662 0.0848,-64.776032 0.25254,-64.776032 0.1677,0 0.25253,21.76037 0.25253,64.776032 0,43.01567 -0.0848,64.77604 -0.25253,64.77604 -0.16771,0 -0.25254,-21.76037 -0.25254,-64.77604 z"
         style="fill:#3d3dec;fill-opacity:1;stroke:none" />
      <path
         inkscape:connector-curvature="0"
         id="path3147"
         d="m -673.713,47.167991 0,-129.299524 131.31983,0 131.31983,0 0,129.299524 0,129.299529 -131.31983,0 -131.31983,0 0,-129.299529 z"
         style="fill:#3d3dec;fill-opacity:1;stroke:none;stroke-width:10.10152530999999954;stroke-linecap:square;stroke-linejoin:miter;stroke-miterlimit:4.19999980999999956;stroke-opacity:1;stroke-dasharray:none;stroke-dashoffset:0" />
      <path
         inkscape:connector-curvature="0"
         id="path3149"
         d="m -942.41357,47.167991 0,-129.299524 131.31983,0 131.31983,0 0,129.299524 0,129.299529 -131.31983,0 -131.31983,0 0,-129.299529 z"
         style="fill:#3d3dec;fill-opacity:1;stroke:none;stroke-width:10.10152530999999954;stroke-linecap:square;stroke-linejoin:miter;stroke-miterlimit:4.19999980999999956;stroke-opacity:1;stroke-dasharray:none;stroke-dashoffset:0" />
    </g>
    <g
       id="g3104"
       inkscape:export-xdpi="90"
       inkscape:export-ydpi="90">
      <rect
         y="359.884"
         x="403.7717"
         height="266.67068"
         width="267.7421"
         id="rect3759-5-8-51-5-8-2-28"
         style="fill:none;stroke:#000000;stroke-width:4;stroke-linecap:square;stroke-linejoin:miter;stroke-miterlimit:4;stroke-opacity:1;stroke-dasharray:none;stroke-dashoffset:0" />
      <rect
         y="359.83585"
         x="134.46155"
         height="266.67068"
         width="267.7421"
         id="rect3759-5-8-51-5-8-2-2"
         style="fill:none;stroke:#000000;stroke-width:4;stroke-linecap:square;stroke-linejoin:miter;stroke-miterlimit:4;stroke-opacity:1;stroke-dasharray:none;stroke-dashoffset:0" />
      <rect
         y="492.56763"
         x="-134.38057"
         height="134.3503"
         width="134.3503"
         id="rect3759-9-54-6-4"
         style="fill:none;stroke:#000000;stroke-width:4;stroke-linecap:square;stroke-linejoin:miter;stroke-miterlimit:4;stroke-opacity:1;stroke-dasharray:none;stroke-dashoffset:0" />
      <rect
         y="492.58795"
         x="0.032889906"
         height="134.3503"
         width="134.3503"
         id="rect3759-5-8-51-5-6"
         style="fill:none;stroke:#000000;stroke-width:4;stroke-linecap:square;stroke-linejoin:miter;stroke-miterlimit:4;stroke-opacity:1;stroke-dasharray:none;stroke-dashoffset:0" />
      <rect
         y="627.05853"
         x="134.23981"
         height="134.3503"
         width="134.3503"
         id="rect3759-4"
         style="fill:none;stroke:#000000;stroke-width:4;stroke-linecap:square;stroke-linejoin:miter;stroke-miterlimit:4;stroke-opacity:1;stroke-dasharray:none;stroke-dashoffset:0" />
      <rect
         y="627.02539"
         x="403.1658"
         height="134.3503"
         width="134.3503"
         id="rect3759-9-6"
         style="fill:none;stroke:#000000;stroke-width:4;stroke-linecap:square;stroke-linejoin:miter;stroke-miterlimit:4;stroke-opacity:1;stroke-dasharray:none;stroke-dashoffset:0" />
      <rect
         y="627.07892"
         x="268.65326"
         height="134.3503"
         width="134.3503"
         id="rect3759-5-4"
         style="fill:none;stroke:#000000;stroke-width:4;stroke-linecap:square;stroke-linejoin:miter;stroke-miterlimit:4;stroke-opacity:1;stroke-dasharray:none;stroke-dashoffset:0" />
      <rect
         y="493.08826"
         x="672.04803"
         height="134.3503"
         width="134.3503"
         id="rect3759-9-54-3"
         style="fill:none;stroke:#000000;stroke-width:4;stroke-linecap:square;stroke-linejoin:miter;stroke-miterlimit:4;stroke-opacity:1;stroke-dasharray:none;stroke-dashoffset:0" />
      <rect
         y="627.09589"
         x="671.71539"
         height="134.3503"
         width="134.3503"
         id="rect3759-9-5-4"
         style="fill:none;stroke:#000000;stroke-width:4;stroke-linecap:square;stroke-linejoin:miter;stroke-miterlimit:4;stroke-opacity:1;stroke-dasharray:none;stroke-dashoffset:0" />
      <rect
         y="493.10858"
         x="806.46149"
         height="134.3503"
         width="134.3503"
         id="rect3759-5-8-51-3"
         style="fill:none;stroke:#000000;stroke-width:4;stroke-linecap:square;stroke-linejoin:miter;stroke-miterlimit:4;stroke-opacity:1;stroke-dasharray:none;stroke-dashoffset:0" />
      <rect
         y="627.04572"
         x="537.57928"
         height="134.3503"
         width="134.3503"
         id="rect3759-5-8-3"
         style="fill:none;stroke:#000000;stroke-width:4;stroke-linecap:square;stroke-linejoin:miter;stroke-miterlimit:4;stroke-opacity:1;stroke-dasharray:none;stroke-dashoffset:0" />
      <rect
         y="627.11627"
         x="806.12866"
         height="134.3503"
         width="134.3503"
         id="rect3759-5-8-5-0"
         style="fill:none;stroke:#000000;stroke-width:4;stroke-linecap:square;stroke-linejoin:miter;stroke-miterlimit:4;stroke-opacity:1;stroke-dasharray:none;stroke-dashoffset:0" />
      <rect
         y="627.42633"
         x="-134.38326"
         height="266.67068"
         width="267.7421"
         id="rect3759-5-8-51-5-8-2"
         style="fill:none;stroke:#000000;stroke-width:4;stroke-linecap:square;stroke-linejoin:miter;stroke-miterlimit:4;stroke-opacity:1;stroke-dasharray:none;stroke-dashoffset:0" />
      <path
         inkscape:connector-curvature="0"
         inkscape:original-d="m -160.64756,626.86872 1144.12942,0"
         inkscape:path-effect="#path-effect2987-6"
         id="path2985-7"
         d="m -160.64756,626.86872 1144.12942,0"
         style="fill:none;stroke:#ff0000;stroke-width:6;stroke-linecap:butt;stroke-linejoin:miter;stroke-miterlimit:4;stroke-opacity:1;stroke-dasharray:none" />
      <path
         inkscape:connector-curvature="0"
         id="path3918-6"
         d="m -131.71146,761.09845 0,-130.71428 131.42849,0 131.42863,0 0,130.71428 0,130.71429 -131.42863,0 -131.42849,0 0,-130.71429 z"
         style="fill:none;stroke:none" />
      <path
         inkscape:connector-curvature="0"
         id="path3920-8"
         d="m 136.85996,694.66988 0,-64.28571 64.2857,0 64.2857,0 0,64.28571 0,64.28572 -64.2857,0 -64.2857,0 0,-64.28572 z"
         style="fill:#6464c6;fill-opacity:1;stroke:none" />
      <path
         inkscape:connector-curvature="0"
         id="path3922-1"
         d="m 271.14566,694.66988 0,-64.28571 64.2857,0 64.2857,0 0,64.28571 0,64.28572 -64.2857,0 -64.2857,0 0,-64.28572 z"
         style="fill:#6464c6;fill-opacity:1;stroke:none" />
      <path
         inkscape:connector-curvature="0"
         id="path3924-1"
         d="m 405.43136,694.66988 0,-64.28571 65,0 65,0 0,64.28571 0,64.28572 -65,0 -65,0 0,-64.28572 z"
         style="fill:#6464c6;fill-opacity:1;stroke:none" />
      <path
         inkscape:connector-curvature="0"
         id="path3926-8"
         d="m 539.71706,694.66988 0,-64.28571 65,0 65,0 0,64.28571 0,64.28572 -65,0 -65,0 0,-64.28572 z"
         style="fill:#6464c6;fill-opacity:1;stroke:none" />
      <path
         inkscape:connector-curvature="0"
         id="path3928-6"
         d="m 674.00276,694.66988 0,-64.28571 65,0 65,0 0,64.28571 0,64.28572 -65,0 -65,0 0,-64.28572 z"
         style="fill:#6464c6;fill-opacity:1;stroke:none" />
      <path
         inkscape:connector-curvature="0"
         id="path3930-3"
         d="m 808.28846,694.66988 0,-64.28571 65,0 65.0001,0 0,64.28571 0,64.28572 -65.0001,0 -65,0 0,-64.28572 z"
         style="fill:#6464c6;fill-opacity:1;stroke:none" />
      <path
         inkscape:connector-curvature="0"
         id="path3932-0"
         d="m 136.31486,694.59709 0,-64.73215 65.0893,0 65.0893,0 0,64.73215 0,64.73214 -65.0893,0 -65.0893,0 0,-64.73214 z m 129.1072,0.0893 0,-64.28571 -64.2858,0 -64.2857,0 0,64.28571 0,64.28572 64.2857,0 64.2858,0 0,-64.28572 z"
         style="fill:#6464c6;fill-opacity:1;stroke:none" />
      <path
         inkscape:connector-curvature="0"
         id="path3934-6"
         d="m 271.13626,694.68637 0,-64.28571 64.2858,0 64.2857,0 0,64.28571 0,64.28572 -64.2857,0 -64.2858,0 0,-64.28572 z"
         style="fill:#6464c6;fill-opacity:1;stroke:none" />
      <path
         inkscape:connector-curvature="0"
         id="path3936-8"
         d="m 271.13626,694.68637 0,-64.28571 64.2858,0 64.2857,0 0,64.28571 0,64.28572 -64.2857,0 -64.2858,0 0,-64.28572 z"
         style="fill:#6464c6;fill-opacity:1;stroke:none" />
      <path
         inkscape:connector-curvature="0"
         id="path3938-5"
         d="m 270.77916,694.59709 0,-64.73215 65.0893,0 65.0893,0 0,64.73215 0,64.73214 -65.0893,0 -65.0893,0 0,-64.73214 z m 128.9286,0.0893 0,-64.28571 -64.2857,0 -64.2858,0 0,64.28571 0,64.28572 64.2858,0 64.2857,0 0,-64.28572 z"
         style="fill:#6464c6;fill-opacity:1;stroke:none" />
      <path
         inkscape:connector-curvature="0"
         id="path3940-8"
         d="m 421.38076,627.10843 c 8.8064,-0.0125 23.1904,-0.0125 31.9643,0 8.7739,0.0126 1.5686,0.0228 -16.0117,0.0228 -17.5804,0 -24.7591,-0.0103 -15.9526,-0.0228 z"
         style="fill:#6464c6;fill-opacity:1;stroke:none" />
      <path
         inkscape:connector-curvature="0"
         id="path3942-8"
         d="m -131.93316,559.25526 0,-64.64978 64.64979,0 64.6497,0 0,64.64978 0,64.64976 -64.6497,0 -64.64979,0 0,-64.64976 z"
         style="fill:#3d3dec;fill-opacity:1;stroke:none" />
      <path
         inkscape:connector-curvature="0"
         id="path3944-9"
         d="m 2.41713,559.25526 0,-64.64978 64.64983,0 64.6497,0 0,64.64978 0,64.64976 -64.6497,0 -64.64983,0 0,-64.64976 z"
         style="fill:#3d3dec;fill-opacity:1;stroke:none" />
      <path
         inkscape:connector-curvature="0"
         id="path3960-8"
         d="m 674.51996,560.02421 0,-64.65026 64.6497,0 64.6497,0 0,7.82868 c 0,5.05076 0.09,7.82868 0.2526,7.82868 0.1675,0 0.2525,16.45707 0.2525,48.86614 0,31.93824 -0.086,48.86613 -0.2489,48.86613 -0.1568,0 -0.2737,2.92014 -0.3157,7.89182 l -0.067,7.89182 -64.5866,0.0636 -64.5866,0.0636 0,-64.65025 z"
         style="fill:none;stroke:none" />
      <path
         inkscape:connector-curvature="0"
         id="path3962-0"
         d="m 674.51996,560.02421 0,-64.65026 64.6108,0 64.6109,0 0.2167,9.53331 c 0.2952,12.98319 0.2772,98.13304 -0.023,110.04351 l -0.242,9.59645 -64.5866,0.0636 -64.5867,0.0636 0,-64.65025 z"
         style="fill:none;stroke:none" />
      <path
         inkscape:export-ydpi="90"
         inkscape:export-xdpi="90"
         inkscape:export-filename="/home/nfs/daniel/Desktop/path4206-6.png"
         transform="translate(-1083.6087,68.21249)"
         d="m 1229.5942,558.90265 a 11.350178,11.350178 0 1 1 -22.7004,0 11.350178,11.350178 0 1 1 22.7004,0 z"
         sodipodi:ry="11.350178"
         sodipodi:rx="11.350178"
         sodipodi:cy="558.90265"
         sodipodi:cx="1218.244"
         id="path4206-7"
         style="fill:#000000;fill-opacity:1;stroke:#000000;stroke-width:6;stroke-linecap:square;stroke-linejoin:miter;stroke-miterlimit:4;stroke-opacity:1;stroke-dasharray:none;stroke-dashoffset:0"
         sodipodi:type="arc" />
      <path
         inkscape:export-ydpi="90"
         inkscape:export-xdpi="90"
         inkscape:export-filename="/home/nfs/daniel/Desktop/path4206-6.png"
         transform="translate(-1217.9589,68.21249)"
         d="m 1229.5942,558.90265 a 11.350178,11.350178 0 1 1 -22.7004,0 11.350178,11.350178 0 1 1 22.7004,0 z"
         sodipodi:ry="11.350178"
         sodipodi:rx="11.350178"
         sodipodi:cy="558.90265"
         sodipodi:cx="1218.244"
         id="path4206-2"
         style="fill:#000000;fill-opacity:1;stroke:#000000;stroke-width:6;stroke-linecap:square;stroke-linejoin:miter;stroke-miterlimit:4;stroke-opacity:1;stroke-dasharray:none;stroke-dashoffset:0"
         sodipodi:type="arc" />
      <path
         inkscape:export-ydpi="90"
         inkscape:export-xdpi="90"
         inkscape:export-filename="/home/nfs/daniel/Desktop/path4206-6.png"
         transform="translate(-1352.3092,68.21249)"
         d="m 1229.5942,558.90265 a 11.350178,11.350178 0 1 1 -22.7004,0 11.350178,11.350178 0 1 1 22.7004,0 z"
         sodipodi:ry="11.350178"
         sodipodi:rx="11.350178"
         sodipodi:cy="558.90265"
         sodipodi:cx="1218.244"
         id="path4206-9"
         style="fill:#000000;fill-opacity:1;stroke:#000000;stroke-width:6;stroke-linecap:square;stroke-linejoin:miter;stroke-miterlimit:4;stroke-opacity:1;stroke-dasharray:none;stroke-dashoffset:0"
         sodipodi:type="arc" />
      <path
         inkscape:export-ydpi="90"
         inkscape:export-xdpi="90"
         inkscape:export-filename="/home/nfs/daniel/Desktop/path4206-6.png"
         transform="translate(-814.9081,68.21249)"
         d="m 1229.5942,558.90265 a 11.350178,11.350178 0 1 1 -22.7004,0 11.350178,11.350178 0 1 1 22.7004,0 z"
         sodipodi:ry="11.350178"
         sodipodi:rx="11.350178"
         sodipodi:cy="558.90265"
         sodipodi:cx="1218.244"
         id="path4206-0"
         style="fill:#000000;fill-opacity:1;stroke:#000000;stroke-width:6;stroke-linecap:square;stroke-linejoin:miter;stroke-miterlimit:4;stroke-opacity:1;stroke-dasharray:none;stroke-dashoffset:0"
         sodipodi:type="arc" />
      <path
         inkscape:export-ydpi="90"
         inkscape:export-xdpi="90"
         inkscape:export-filename="/home/nfs/daniel/Desktop/path4206-6.png"
         transform="translate(-410.84708,68.21249)"
         d="m 1229.5942,558.90265 a 11.350178,11.350178 0 1 1 -22.7004,0 11.350178,11.350178 0 1 1 22.7004,0 z"
         sodipodi:ry="11.350178"
         sodipodi:rx="11.350178"
         sodipodi:cy="558.90265"
         sodipodi:cx="1218.244"
         id="path4206-73"
         style="fill:#000000;fill-opacity:1;stroke:#000000;stroke-width:6;stroke-linecap:square;stroke-linejoin:miter;stroke-miterlimit:4;stroke-opacity:1;stroke-dasharray:none;stroke-dashoffset:0"
         sodipodi:type="arc" />
      <path
         inkscape:export-ydpi="90"
         inkscape:export-xdpi="90"
         transform="translate(-277.50695,68.21249)"
         d="m 1229.5942,558.90265 a 11.350178,11.350178 0 1 1 -22.7004,0 11.350178,11.350178 0 1 1 22.7004,0 z"
         sodipodi:ry="11.350178"
         sodipodi:rx="11.350178"
         sodipodi:cy="558.90265"
         sodipodi:cx="1218.244"
         id="path4206-6"
         style="fill:#000000;fill-opacity:1;stroke:#000000;stroke-width:6;stroke-linecap:square;stroke-linejoin:miter;stroke-miterlimit:4;stroke-opacity:1;stroke-dasharray:none;stroke-dashoffset:0"
         sodipodi:type="arc" />
      <path
         inkscape:export-ydpi="90"
         inkscape:export-xdpi="90"
         inkscape:export-filename="/home/nfs/daniel/Desktop/path4206-6.png"
         transform="translate(-949.38467,68.21249)"
         d="m 1229.5942,558.90265 a 11.350178,11.350178 0 1 1 -22.7004,0 11.350178,11.350178 0 1 1 22.7004,0 z"
         sodipodi:ry="11.350178"
         sodipodi:rx="11.350178"
         sodipodi:cy="558.90265"
         sodipodi:cx="1218.244"
         id="path4206-0-8"
         style="fill:#000000;fill-opacity:1;stroke:#000000;stroke-width:6;stroke-linecap:square;stroke-linejoin:miter;stroke-miterlimit:4;stroke-opacity:1;stroke-dasharray:none;stroke-dashoffset:0"
         sodipodi:type="arc" />
      <path
         inkscape:export-ydpi="90"
         inkscape:export-xdpi="90"
         inkscape:export-filename="/home/nfs/daniel/Desktop/path4206-6.png"
         transform="translate(-680.17901,68.21249)"
         d="m 1229.5942,558.90265 a 11.350178,11.350178 0 1 1 -22.7004,0 11.350178,11.350178 0 1 1 22.7004,0 z"
         sodipodi:ry="11.350178"
         sodipodi:rx="11.350178"
         sodipodi:cy="558.90265"
         sodipodi:cx="1218.244"
         id="path4206-0-0"
         style="fill:#000000;fill-opacity:1;stroke:#000000;stroke-width:6;stroke-linecap:square;stroke-linejoin:miter;stroke-miterlimit:4;stroke-opacity:1;stroke-dasharray:none;stroke-dashoffset:0"
         sodipodi:type="arc" />
      <path
         inkscape:export-ydpi="90"
         inkscape:export-xdpi="90"
         inkscape:export-filename="/home/nfs/daniel/Desktop/path4206-6.png"
         transform="translate(-546.10116,68.21249)"
         d="m 1229.5942,558.90265 a 11.350178,11.350178 0 1 1 -22.7004,0 11.350178,11.350178 0 1 1 22.7004,0 z"
         sodipodi:ry="11.350178"
         sodipodi:rx="11.350178"
         sodipodi:cy="558.90265"
         sodipodi:cx="1218.244"
         id="path4206-0-3"
         style="fill:#000000;fill-opacity:1;stroke:#000000;stroke-width:6;stroke-linecap:square;stroke-linejoin:miter;stroke-miterlimit:4;stroke-opacity:1;stroke-dasharray:none;stroke-dashoffset:0"
         sodipodi:type="arc" />
    </g>
  </g>
</svg>
